oooooo   oooooo     oooo                        .   oooo        
 `888.    `888.     .8'                       .o8   `888        
  `888.   .8888.   .8'   oooo d8b  .oooo.   .o888oo  888 .oo.   
   `888  .8'`888. .8'    `888""8P `P  )88b    888    888P"Y88b  
    `888.8'  `888.8'      888      .oP"888    888    888   888  
     `888'    `888'       888     d8(  888    888 .  888   888  
      `8'      `8'       d888b    `Y888""8o   "888" o888o o888o 











File Name

Machete 2010 1040p BRRip H264 Wrath.mp4

File Size
Format : MPEG-4
Format profile : Base Media
Codec ID : isom
File size : 3.76 GiB
Duration : 1h 44mn
Overall bit rate : 5 137 Kbps

Video
ID : 1
Format : AVC
Format/Info : Advanced Video Codec
Format profile : High@L4.1
Format settings, CABAC : Yes
Format settings, ReFrames : 3 frames
Codec ID : avc1
Codec ID/Info : Advanced Video Coding
Duration : 1h 44mn
Bit rate mode : Variable
Bit rate : 4 499 Kbps
Maximum bit rate : 15.2 Mbps
Width : 1 920 pixels
Height : 1 040 pixels
Display aspect ratio : 16:9
Frame rate mode : Constant
Frame rate : 23.976 fps
Resolution : 24 bits
Colorimetry : 4:2:0
Scan type : Progressive
Bits/(Pixel*Frame) : 0.094
Stream size : 3.29 GiB (87%)

Audio #1
ID : 2
Format : AAC
Format/Info : Advanced Audio Codec
Format version : Version 4
Format profile : LC
Format settings, SBR : No
Codec ID : 40
Duration : 1h 44mn
Bit rate mode : Variable
Bit rate : 192 Kbps
Maximum bit rate : 198 Kbps
Channel(s) : 2 channels
Channel positions : L R
Sampling rate : 48.0 KHz
Resolution : 16 bits
Stream size : 143 MiB (4%)

Audio #2
ID : 3
Format : AAC
Format/Info : Advanced Audio Codec
Format version : Version 4
Format profile : LC
Format settings, SBR : No
Codec ID : 40
Duration : 1h 44mn
Bit rate mode : Variable
Bit rate : 448 Kbps
Maximum bit rate : 466 Kbps
Channel(s) : 6 channels
Channel positions : Front: L C R, Rear: L R, LFE
Sampling rate : 48.0 KHz
Resolution : 16 bits
Stream size : 335 MiB (9%)

English Subs : English forced hardcoded 

Language : English







================================== 
http://thepiratebay.org/user/hiest
==================================







Screenshots:
 
http://www.imagebam.com/image/98906a102016924
 
http://www.imagebam.com/image/67c04d102016981
 
http://www.imagebam.com/image/f60992102017064
 
http://www.imagebam.com/image/9bf9d2102017119
 
http://www.imagebam.com/image/4ac6ed102017184
 
http://www.imagebam.com/image/358aa6102017244
 
http://www.imagebam.com/image/4a7f2a102017296
 
http://www.imagebam.com/image/355f8e102017381
 
http://www.imagebam.com/image/8174fc102017471












oooooo   oooooo     oooo                        .   oooo        
 `888.    `888.     .8'                       .o8   `888        
  `888.   .8888.   .8'   oooo d8b  .oooo.   .o888oo  888 .oo.   
   `888  .8'`888. .8'    `888""8P `P  )88b    888    888P"Y88b  
    `888.8'  `888.8'      888      .oP"888    888    888   888  
     `888'    `888'       888     d8(  888    888 .  888   888  
      `8'      `8'       d888b    `Y888""8o   "888" o888o o888o 